<?xml version="1.0" encoding="UTF-8"?>
<svg id="Layer_1" xmlns="http://www.w3.org/2000/svg" version="1.1" viewBox="0 0 359 517">
  <!-- Generator: Adobe Illustrator 30.4.0, SVG Export Plug-In . SVG Version: 2.1.4 Build 226)  -->
  <defs>
    <style>
      .st0 {
        fill: #59221c;
      }

      .st1 {
        fill: #b46968;
      }

      .st2 {
        fill: #441c17;
      }

      .st3 {
        fill: #681211;
      }

      .st4 {
        fill: #4d1e19;
      }
    </style>
  </defs>
  <g id="WVU6zX">
    <g>
      <path class="st3" d="M285.4,33.59l-30.36,55.16c12.1,8.9.18,19.85-7.48,26.33-2.28,2.4-8.3,12.97-4.53,16.89,25.11,2.62,50.17,1.41,75.5-1.97,24.45,36.78,29.61,74.96,30.58,116.97,2.54,110.46-73.8,200.14-169.93,256.2-33.46-16.11-58.92-38.72-84.66-65.98-19.78,17.36-18.12,48.94-54.28,55.71-26.47-40.27,34.96-76.74,15.73-106.86-22.31-34.95-38.95-74.24-38.81-114.12-3.47-15.94-3.92-32.13-1.34-48.57,5.72-29.84,10.02-66.86,34.91-91.1,33.95-11.88,85.48,9.22,139.05-1.17,15.79-3.06,23.86-35.01,14.64-45.48-1.39-11.23,3.68-12.82,13.77-9.71,17-2.31,15.05-28.19,28.97-38.23,7.28-25.7,35.72-31.14,38.24-4.05ZM182.78,338.49c-32.26-1.86-48.78-29.89-50.35-55.37-1.61-26.16,19.04-53.76,47.07-56.48,22.39-2.17,38.48,12.31,54.07,25.01l34.03-16.74c-14.08-29.56-38.5-46.14-65.12-51.61-26.93-5.53-57.19,4.59-76.78,23.84-41.9,41.18-44.55,104.74-4.12,147.32,21.04,22.16,51.62,31.89,81.94,25.57,25.67-5.35,54.44-20.63,64.45-50-9.51-9.22-19.66-15.36-32.05-20.71-13.57,13.71-29.27,30.54-53.13,29.16Z"/>
      <path class="st0" d="M285.4,33.59c-4.41-9.23-16.48-15.1-25.12-7.26-5.08,4.6-8.98,8.33-13.12,11.31l6.83-26.61c2.2-8.13,34.68,1.27,36.44,14.18.51,3.72-3.72,6.01-5.02,8.37Z"/>
      <path class="st4" d="M247.56,115.07c-3.81-10.38,3.41-18.92,7.48-26.33,10.32,10.19,24.86,8.73,35.39,23.3-18.21,5.86-33.44-9.57-42.88,3.03Z"/>
      <path class="st2" d="M218.19,75.87c-2.03,6.09-7.76,9.72-13.77,9.71-6.57-7.46-14.46-12.79-15.15-25.13,13.47,2.39,19.34,11.68,28.92,15.42Z"/>
      <path class="st1" d="M17.17,271.9c-9.11-14.85-4.34-32.94-1.34-48.57l1.34,48.57Z"/>
    </g>
  </g>
</svg>