<?xml version="1.0" encoding="UTF-8"?>
<svg id="Layer_1" xmlns="http://www.w3.org/2000/svg" version="1.1" viewBox="0 0 372.68 108.87">
  <!-- Generator: Adobe Illustrator 30.4.0, SVG Export Plug-In . SVG Version: 2.1.4 Build 226)  -->
  <defs>
    <style>
      .st0 {
        fill: #a6a6a5;
      }

      .st1 {
        fill: #f8f8f7;
      }

      .st2 {
        fill: #9c9c9b;
      }

      .st3 {
        fill: #828383;
      }

      .st4 {
        fill: #615d5d;
      }

      .st5 {
        fill: #828282;
      }

      .st6 {
        fill: #5f5e5e;
      }

      .st7 {
        fill: #595a5a;
      }

      .st8 {
        fill: #a7a7a7;
      }

      .st9 {
        fill: #f9f9f8;
      }

      .st10 {
        fill: #fbfbfa;
      }

      .st11 {
        fill: #454545;
      }

      .st12 {
        fill: #a2a2a2;
      }

      .st13 {
        fill: #f7f6f6;
      }

      .st14 {
        fill: #8e8e8e;
      }

      .st15 {
        fill: #726e6e;
      }

      .st16 {
        fill: #595858;
      }

      .st17 {
        fill: #535050;
      }

      .st18 {
        fill: #606060;
      }

      .st19 {
        fill: #5d5d5d;
      }

      .st20 {
        fill: #636363;
      }

      .st21 {
        fill: #a6a6a6;
      }

      .st22 {
        fill: #898989;
      }

      .st23 {
        fill: #a3a2a2;
      }

      .st24 {
        fill: #6e6d6d;
      }

      .st25 {
        fill: #fff;
      }

      .st26 {
        fill: #f9f9f9;
      }

      .st27 {
        fill: #afafae;
      }

      .st28 {
        fill: #fefefe;
      }

      .st29 {
        fill: #8b8b8b;
      }

      .st30 {
        fill: #f6f6f5;
      }

      .st31 {
        fill: #f8f8f8;
      }

      .st32 {
        fill: #6b6b6b;
      }

      .st33 {
        fill: #7f7f7f;
      }

      .st34 {
        fill: #6a6a6a;
      }

      .st35 {
        fill: #888;
      }

      .st36 {
        fill: #f8f7f7;
      }

      .st37 {
        fill: #fbfbfb;
      }

      .st38 {
        fill: #fdfdfd;
      }
    </style>
  </defs>
  <path class="st5" d="M168.73,83.33c-.5.39-.99-.06-.99-.78v-23.69c0-.68.59-1.1,1.02-.98l-.03,25.45Z"/>
  <g>
    <path class="st9" d="M190.49,57.9c.18,8.71-.16,17.29-1.02,25.75l-2.67-.26c-.58-5.57.93-11.5-.86-17.38-2.71,2.44-3.18,7.05-6.77,7.32s-4.93-4.8-6.48-8.37c-3.36,9.99,2.01,20.49-3.96,18.38-.81-8.25-.8-17.17.03-25.45,1.26-.33,3.64-.36,4.18.67l5.69,10.84c3.52-3.49,4.06-7.66,6.51-11.17.91-.86,3.67-.54,5.36-.33Z"/>
    <path class="st10" d="M316.74,72.69c-.37,3.65-.72,7.28-1.05,10.89-.74-.07-1.49,0-2.02-.45-.61-.51-1.01-1.35-1-2.44l.05-23.78,10.96.17c5.6.09,8.43,8.35,5.26,12.6-.67.91-3.04.92-3.2,1.71-.77,3.9,3.62,6.83,5.14,11.9l-3.76.17-5.63-9.57c-.91-1.55-3.5-1.3-4.75-1.19ZM316.78,69.7c2.87.11,6.42.26,9.18-1.82,1.79-1.35,1.06-5.33-.9-6.28-2.58-1.26-4.99-1.53-7.33-1.81-2.88-.34-2.74,4.76-.95,9.92Z"/>
    <path class="st36" d="M227.25,75.64c-1.38-1.46-7.13-1.41-8.55-.49-1.86,1.21-.71,9.68-6.44,8.33l6.76-23.33c.55-1.89,1.65-3.26,3.25-3.43s3.95,1.03,4.55,3.12l6.6,23.39c-.26.37-2.18.53-3.07.22-1.74-.62-1.32-5.94-3.1-7.81ZM225.95,71.43c-.4-4.73-1.15-7.56-2.87-10.96l-4.37,11.19c2.59.32,4.46.34,7.23-.23Z"/>
    <path class="st36" d="M158.19,75.35c-1.6-1.57-6.64-.87-8.36.23s-1.42,3.33-1.48,4.82c-.09,2.24-2.18,3.79-4.78,2.96l7.54-25.3c.54-1.82,3.31-1.45,4.62-.9,1.66.7,2.02,1.97,2.61,4.02l6.46,22.26-3.9.04c-.43-2.59-.38-5.84-2.72-8.13ZM157.93,71.11l-3.52-10.59c-1.67,2.99-3.62,6.44-3.25,10.02.7,1.71,5.41,1.82,6.77.57Z"/>
    <path class="st30" d="M356.99,57.82c.14,3.42.38,6.73.74,9.93h11c.38-3.31.71-6.63,1-9.95l2.92.16.04,25.54-2.92.05c-.35-4.22-.69-8.5-1.03-12.86-3.12.88-7.77.82-11,.02-.38,4.32-.73,8.6-1.04,12.84l-2.92-.05.06-24.61c0-.92.85-1.8,1.41-2.04.8-.34,1.36.18,1.75.96Z"/>
    <path class="st13" d="M284.14,59.86c.49,7.67.5,15.31-.02,23-.16,1.18-3.46,1.03-3.45.05l.13-9.73c-1.35-3.37-9.14-2.15-12.12-1.16l.05,11.51-3-.04c-.81-8.62-.8-18.01,0-26.72,1.99-.22,3.05,1.19,3.05,2.98v7.94s11.43-.33,11.43-.33c1.25-6.18-.59-11.62,2.93-9.55.5.3.91,1.31,1,2.04Z"/>
    <path class="st36" d="M292.68,63.79c.28,4.5.55,9.11.8,13.81,1.08,2.8,2.8,3.56,5.74,3.28,2.48-.24,4.09-1.45,4.81-4.19.1-6.41.33-12.71.68-18.9l3.19.25-.76,19.78c-1.51,5.27-7.11,6.41-11.27,5.86-4.95-.65-6.22-3.94-6.2-8.04-.79-5.73-.8-12.06.07-17.82l2.84.07.1,5.9Z"/>
    <path class="st31" d="M194.92,83.63c-.21-8.78.16-17.45,1.1-26.01,4.63-1.38,10.85-1.63,14.51,2.47,2.23,2.51,1.8,8.45-.58,10.65-3.06,2.81-7.18,2.99-11.15,2.98l-.18,9.86-3.7.05ZM208.73,66.55c1.33-5.89-7.39-8.47-9.26-5.87-1.33,1.86-1.68,7.43.09,9.18,2.34,2.31,8.49-.33,9.17-3.31Z"/>
    <path class="st26" d="M245.31,76.52c-.48-4.36-.44-8.83.23-13.18,1.64-5.54,6.89-7.73,12.72-5.86.55.18,2.15.03,2.44.85,1.42,3.97-9.36.71-11.18,4.91-1.49,3.43-1.77,13.87,1.76,16.56,2.69,2.04,8.41-.18,9.39,1.33,2.14,3.29-8.85,3.54-11.88,1.19-1.58-1.23-2.84-3.15-3.48-5.82Z"/>
    <path class="st1" d="M337.71,64.44c-.9,3.63-.83,7.41-.3,11.09.57,1.67,1.06,3.34,2.02,3.99,3.98,2.72,9.81-.88,11.44,3.16-3.67,1.22-9.01,1.8-12.15.13-6.99-3.72-6.74-20.62-.89-24.51,3.42-2.28,9.2-2,12.34.74-3.32,3.69-9.69.3-11.2,2.36-.47.64-.62,1.82-1.26,3.03Z"/>
    <path class="st28" d="M144.72,57.82c.02.48.11,1-.12,1.94-2.4.09-4.36.46-6.82,1.38l-.12,20.42c0,1.68-1.87,2.16-2.91,1.99-.6-7.69-.77-15.5-.49-23.41-1.75,1.19-3.71.76-5.37.54-1.83-.24-2.46-1.62-2.15-2.87,5.8-.86,12.2-.82,17.99,0Z"/>
    <path class="st0" d="M265.72,83.49c-.49.23-.98-.22-.98-.95v-24.68c0-.68.59-1.1.99-1.09v26.72Z"/>
    <path class="st11" d="M189.47,83.64l1.02-25.75.27,24.74c0,.76-.63,1.07-1.29,1.01Z"/>
    <path class="st20" d="M194.92,83.63l-.29-23.91c-.01-1.01.39-1.81,1.38-2.1l-1.1,26.01Z"/>
    <path class="st12" d="M134.75,83.56c-.42.04-1.05-.04-1.05-.86l.56-22.55.49,23.41Z"/>
    <path class="st4" d="M284.12,82.86l.02-23c.97,7.37,1.03,15.34-.02,23Z"/>
    <path class="st29" d="M304.03,76.69l-.33-17.91c0-.75.55-1.02,1.01-.99-.41,6.3.91,12.84-.68,18.9Z"/>
    <path class="st3" d="M289.67,75.65c-.62-.08-1-.82-1-1.88v-14.03c0-1.06.39-1.81,1.07-1.91l-.07,17.82Z"/>
    <path class="st27" d="M144.72,57.82h-17.99c.1-.66.85-1.05,1.92-1.05h14.14c1.07,0,1.82.39,1.93,1.05Z"/>
    <path class="st17" d="M293.48,77.6c-1.68-4.34-.72-9.22-.8-13.81.43-.09,1,.29,1,1l-.2,12.81Z"/>
    <path class="st6" d="M280.8,73.18c-.79-.73-2.04-1.59-3.99-1.57l-8.13.41c0-.62.17-1.31,1.04-1.3l10.1.03c1.22,0,1,1.72.99,2.43Z"/>
    <path class="st21" d="M245.31,76.52c-1.03-4.26-1.03-8.9.23-13.18l-.23,13.18Z"/>
    <path class="st33" d="M357.73,71.71v10.96c0,.76-.53.9-1.04.89l-.02-10.93c0-1.06.39-1.8,1.05-1.91.87.28.86.61,0,.99Z"/>
    <path class="st29" d="M369.76,83.56c-.51,0-1.05-.13-1.05-.89v-10.96c-.87-.29-.85-.63.01-1.01.35,0,1.01.14,1.01.98l.03,11.87Z"/>
    <path class="st14" d="M337.4,75.53c-1.15-3.39-1.4-7.86.3-11.09l-.3,11.09Z"/>
    <polygon class="st19" points="368.73 70.7 368.72 71.71 357.73 71.71 357.72 70.72 368.73 70.7"/>
    <path class="st2" d="M315.69,83.58l.03-9.93c0-.79.57-.92,1.02-.96v10.03c0,.79-.57.91-1.05.86Z"/>
    <path class="st33" d="M357.73,67.75c-.35.08-1.01-.17-1.01-.95l.27-8.97c1.56,3.12.55,6.65.74,9.93Z"/>
    <path class="st22" d="M368.72,67.75v-8.97c0-.75.52-1,1-.98l.02,8.99c0,.79-.66,1.04-1.01.95Z"/>
    <g>
      <path class="st28" d="M289.63,34.04l1.08-.18c.29-4.93.62-9.85,1.01-14.75l7.95.08v32.49c-3.33.31-6.19.43-9.41-.32l-9.91-16.31c-.53.2-1.62.98-1.62,1.88l-.03,14.73c-3.07.43-5.76.72-8.6-.75l.08-30.9c2.56-1.19,7.68-1.99,9.52-.02,4.14,4.45,5.67,10.36,9.94,14.04Z"/>
      <path class="st28" d="M248.61,31.33c1.18,7.92-.98,14.08-6.77,18.12-5.14,3.59-13.46,4.34-18.66.27-5.89-4.61-8.57-9.75-7.42-17.16.79-5.08,4.63-11.68,11.13-13.12,10.8-2.38,20.35,2.64,21.72,11.88ZM229.44,27.42c-4.61,1.4-6.89,7.72-5,11.22,2.16,4.01,6.27,6.33,10.35,4.91,4.51-1.57,7-6.27,5.51-10.58s-5.3-7.24-10.86-5.55Z"/>
      <path class="st38" d="M334.73,19.11c.83,10.68.85,22.05-.05,32.73-2.41-.15-5.73.98-7.94-.83-.46-4.01-.74-8.08-.85-12.18l-2.2-.83c-2.52-.02-5.47-.64-7.94,1l-.42,12.36c-2.91.84-5.58.67-8.55.3V19.19s8.91-.03,8.91-.03l.02,10.77c3.68.2,7.07.44,10.6-.35l.39-10.39,8.03-.08Z"/>
      <path class="st38" d="M135.73,19.11c.35,8.24.69,16.52.99,24.83h12.92s0,7.89,0,7.89l-21.91.02.05-32.62,7.94-.12Z"/>
      <rect class="st37" x="254.78" y="19.12" width="8.94" height="32.75"/>
      <path class="st32" d="M334.68,51.84l.05-32.73c.34,0,1.02.13,1.02.99v30.77c0,.87-.67.99-1.07.96Z"/>
      <path class="st7" d="M270.09,50.92l.08-30.9-.08,30.9Z"/>
      <path class="st8" d="M136.72,43.94c-.33,0-1.02-.13-1.02-.99l.02-23.83c.34,0,1.02.13,1.02.98l-.03,23.84Z"/>
      <path class="st35" d="M289.63,34.04c.76-.15,1.15-.88,1.14-1.95l-.06-12.01c0-.84.65-.97,1.01-.97l-.28,17.89c-.99-1.27-1.11-2.36-1.81-2.96Z"/>
      <path class="st16" d="M326.74,51.01c-2.93-2.41,1.38-10.15-3.04-13.01.82,0,1.67-.26,3.01.18l.04,12.83Z"/>
      <g>
        <path class="st38" d="M173.83,48.28c-3.02-2.13-7.05-2.76-12.1-1.88-.38,1.52-.9,4.57-2.28,5.04-2.82.97-5.66.42-8.96.15l12.78-31.78c1.79-1.17,6.23-1.26,7.85-.03l12.66,31.9-8.07.04c-1.29,0-1.89-2.31-1.89-3.45ZM168.19,32.07c-.71-.4-2.09-.16-2.43.44-.69,1.22-1.52,5.81-.51,6.32.91.45,3.7.44,4.36-.36.31-.38-.9-6.11-1.42-6.4Z"/>
        <path class="st32" d="M173.83,48.28c-3.82-2.09-8.09-1.25-12.1-1.88,7.69-.78,12.11-1.74,12.1,1.88Z"/>
      </g>
      <g>
        <path class="st28" d="M361.91,46.62c-4.02-.58-8.07-.71-12.14-.38l-1.36,5.52-9.19-.15,12.51-31.74c1.25-1.51,5.63-.97,7.9-.42l12.58,31.7c-2.62,1.06-5.57,1.2-8.18.27-1.33-.47-2.22-2.73-2.11-4.81ZM359.27,38.63c-2.04-3.06-2.18-4.47-3.23-7.28-2.83,2.24-3.18,4.7-3.33,7.51,2.41.15,3.59.38,6.57-.23Z"/>
        <path class="st34" d="M361.91,46.62l-12.14-.38c3.88-.43,8.51-.98,12.14.38Z"/>
      </g>
      <g>
        <path class="st28" d="M210.93,38.19c.73,3.29.75,6.86-.32,10.09-6.18,6.86-17.21,4.86-23.05-.88-6.42-6.31-6.77-16.72-.81-23,3.7-3.9,6.49-5.95,12.18-5.4,2.94.28,8.16-.29,10.39,2.77.61,1.73-1.91,6.42-4.41,6.09-3.82-.5-8.19-2.06-11.41,1.27-2,2.07-2.56,7.58-1.33,10.29,1.85,4.07,6.5,5.2,10.44,4.36l.26-6.6c2.33-.29,6.51-1.22,8.06,1.01Z"/>
        <path class="st15" d="M210.61,48.28l.32-10.09c1.43,2.04,1.72,7.84-.32,10.09Z"/>
      </g>
    </g>
    <path class="st23" d="M317.72,59.79c-1.56,3.05-1,6.58-.95,9.92-1.79-5.15-1.93-10.26.95-9.92Z"/>
  </g>
  <g>
    <path class="st25" d="M109.3,47.82l.02,13.04c-3.43,28.59-28.7,49.59-57.67,47.91C22.68,107.09.05,83.32,0,54.52S22.51,1.88,51.47.11c28.96-1.77,54.31,19.14,57.83,47.72ZM12.08,48.75c-.5,3.71-.52,7.47-.03,11.19,2.9,22.38,22.81,38.69,45.5,37.28,22.7-1.41,40.4-20.05,40.47-42.61.07-22.57-17.52-41.31-40.21-42.86-22.69-1.55-42.69,14.64-45.73,37.01Z"/>
    <path class="st24" d="M109.32,60.87l-.02-13.04c.53,4.33.54,8.71.02,13.04Z"/>
    <path class="st29" d="M12.05,59.94c-.48-3.71-.47-7.48.03-11.19l-.03,11.19Z"/>
    <g>
      <path class="st28" d="M50.81,56.78c.81-3.86.9-7.79.29-11.78-1.17-3.69-1.82-7.46-4.84-11.21,3.88-2.75,7.12,4.81,11.83.44,1.02-.95,4.39-1.79,4.68-.48l-3.82,9.26-.31,13.82,29.98-.04c1.04,2.86-1.39,3.58-2.64,5.21-6.36,8.29-16.91,9.95-26.68,4.1-.74,3.25-1.65,8.37-4.38,9.36-3.47-.53-4.75-5.54-4.16-8.83-13.26,5.43-22.83,3.84-30.45-9.44l30.5-.4Z"/>
      <path class="st18" d="M50.81,56.78l.29-11.78c1.41,4.47.87,11.77-.29,11.78Z"/>
    </g>
  </g>
</svg>