<?xml version="1.0" encoding="UTF-8"?>
<svg id="Layer_1" xmlns="http://www.w3.org/2000/svg" version="1.1" viewBox="0 0 158.38 159">
  <!-- Generator: Adobe Illustrator 30.4.0, SVG Export Plug-In . SVG Version: 2.1.4 Build 226)  -->
  <defs>
    <style>
      .st0 {
        fill: #121111;
      }

      .st1 {
        fill: #777;
      }

      .st2 {
        fill: #7e7d7d;
      }

      .st3 {
        fill: #373737;
      }

      .st4 {
        fill: #353434;
      }

      .st5 {
        fill: #fff;
      }

      .st6 {
        fill: #121212;
      }

      .st7 {
        fill: #848484;
      }

      .st8 {
        fill: #161717;
      }

      .st9 {
        fill: #616161;
      }
    </style>
  </defs>
  <path class="st6" d="M87.32,157.84l-.03,1.16h-23l-2.97-3.17,2.49-1.73c6.99,1.33,14.02,1.99,21.1,1.97l2.41,1.77Z"/>
  <path class="st3" d="M86.29,0l-.06,1.52-1.87,1.81c-1.66.26-14.25.73-14.7.14-.56-.72-.59-1.59-.39-2.45l1.03-1.02h16Z"/>
  <path class="st5" d="M69.27,1.02c2.61,2.16,7.32-.76,16.96.5,16.15,2.11,31.85,8.07,44.23,19.18,11.66,10.47,19.99,23.11,24.32,38.07,1.18,4.07,2.53,7.23,2.48,11.26.87,6.04.69,13.07-.24,18.92-.14,2.98-.51,5.99-1.1,9.04-3.03,11.18-7.53,22.63-16.43,31.5l-10.77,10.73c-9.18,9.15-28.35,15.88-41.41,17.62-8.73,1.16-17.43-1.14-26-2.01-5.43-.55-10.23-2.92-15.33-5.23C20.88,139.24,5.25,115.65,1.22,89.06c-1.47-9.45-.83-18.49,1.91-27.1C9.46,32.89,35.5,6.97,65.66,2.45c1.14-.17,2.74-1.73,3.6-1.43ZM74.31,17.03c-9.77.02-26.64,5.97-31.98,12.15-.73.84-2.92,1.32-3.97,1.88-1.45,3.91-5.55,5.29-7.72,8.36l-4.47,6.34c-3.3,4.67-6.7,12.85-8.09,18.26-8.59,33.54,11.89,67.68,45.36,76.82,3.62.99,6.53,1.22,9.86,1.21,3.69,2.12,8.3.61,12,.2,29.77-3.23,53.51-25.84,56.71-56.65,3.49-33.64-22.39-65.89-57.69-68.61-2.9-1.51-7.19-1.51-10.02.02Z"/>
  <path class="st8" d="M1.22,89.06c-1.34-8.83-2.54-23.96,1.91-27.1-1.94,8.91-2.24,17.87-1.91,27.1Z"/>
  <path class="st0" d="M158.09,89.96c-.74.85-1.1.5-1.08-1.02l.24-18.92c.65.05,1.14.84,1.13,1.92l-.29,18.02Z"/>
  <path class="st4" d="M158.09,89.96l-2.17,8.02c-.14.12-.67-.31-.53-1l1.63-8.05,1.08,1.02Z"/>
  <g>
    <path class="st1" d="M85.31,142.26c-3.71.4-8.31,1.91-12-.2l12,.2Z"/>
    <path class="st7" d="M84.34,17.01l-10.02.02c2.83-1.53,7.12-1.53,10.02-.02Z"/>
    <g>
      <path class="st5" d="M83.37,74.43c.2,3.38.64,6.6,1.31,9.66l42.33-.11c1.96,4.05-1.67,6.07-2.82,8.37-1.61,3.23-3.01,3.48-5.17,5.33-3.68,3.14-7.24,4.59-11.79,5.72-3.46.43-7.02.4-10.49-.11-2.52-.69-5.14-.47-7.67-2.29-5.11-3.66-4.49,7.23-11.05,13.09-4.27-3.25-6.44-8.02-7.23-13.65-8.92,2.33-17.41,4.1-25.54,1.6-8.53-2.63-15.8-9.3-17.38-17.87l44.13-.29c1.44-11.25-.37-22.15-6.09-31.45-.62-1.01-.59-1.77-.13-2.39.21-.28.65-1.02,1.21-.78l9.74,4.29c3.03,1.33,9.07-5.73,14.07-2.84-4.58,7.84-7.36,15.22-7.42,23.72Z"/>
      <path class="st9" d="M84.67,84.09c-.72,0-1.38-.25-1.37-1.09l.07-8.57c.59-.32.98.42.98,1.49l.33,8.18Z"/>
      <path class="st2" d="M107.23,103.4c-3.57.89-6.72.92-10.49-.11l10.49.11Z"/>
    </g>
  </g>
</svg>